<svg id="Capa_1" enable-background="new 0 0 512 512" height="512" viewBox="0 0 512 512" width="512" xmlns="http://www.w3.org/2000/svg"><g><path d="m453.935 216.989c-4.267 0-7.726-3.459-7.726-7.726v-98.736c0-4.267 3.459-7.726 7.726-7.726s7.726 3.459 7.726 7.726v98.736c0 4.267-3.459 7.726-7.726 7.726z" fill="#596c76"/><path d="m267.282 186.703c-22.031 0-39.955-17.924-39.955-39.955v-2.935c0-11.469-9.393-20.8-20.94-20.8h-.716c-5.329 0-10.339 2.075-14.106 5.844-3.768 3.769-5.841 8.778-5.84 14.107v23.863c.001 4.267-3.457 7.727-7.724 7.727s-7.728-3.458-7.729-7.725v-23.863c-.001-9.457 3.679-18.348 10.365-25.035 6.687-6.688 15.577-10.371 25.034-10.371h.716c20.067 0 36.392 16.263 36.392 36.253v2.935c0 13.511 10.992 24.503 24.503 24.503s24.503-10.992 24.503-24.503v-36.221c0-4.267 3.459-7.726 7.726-7.726s7.726 3.459 7.726 7.726v36.221c0 22.031-17.924 39.955-39.955 39.955z" fill="#596c76"/><path d="m507.414 289.981c.106-.251.2-.508.303-.761.045-.113.087-.218.132-.332 2.669-6.668 4.151-13.938 4.151-21.559 0-32.069-25.997-58.066-58.066-58.066s-58.066 25.997-58.066 58.066c0 7.621 1.483 14.891 4.152 21.559.045.114.086.219.131.332.103.253.197.51.303.761 11.444 28.718 11.142 32.168 4.451 58.605-1.108 4.169-1.706 8.545-1.706 13.062 0 28.02 22.715 42.349 50.735 42.349s50.735-14.329 50.735-42.349c0-4.517-.598-8.893-1.706-13.062-6.691-26.438-6.993-29.887 4.451-58.605z" fill="#01c0fa"/><path d="m512 267.329c0-32.069-25.997-58.066-58.066-58.066-4.146 0-8.188.443-12.088 1.269 26.266 5.563 45.978 28.874 45.978 56.797 0 7.621-1.483 14.891-4.152 21.559-.045.114-.086.219-.131.332-.103.253-.196.51-.303.761-11.444 28.718-11.142 32.168-4.451 58.605 1.108 4.169 1.706 8.545 1.706 13.062 0 23.853-16.465 37.777-38.647 41.393 3.875.632 7.921.956 12.088.956 28.02 0 50.735-14.329 50.735-42.349 0-4.517-.598-8.893-1.706-13.062-6.692-26.437-6.994-29.886 4.451-58.605.106-.251.2-.508.303-.761.045-.113.087-.218.132-.332 2.669-6.668 4.151-13.938 4.151-21.559z" fill="#0290cf"/><path d="m0 217.662v175.927c0 8.621 6.989 15.61 15.61 15.61h324.781c8.621 0 15.61-6.989 15.61-15.61v-175.927c0-8.621-6.989-15.61-15.61-15.61h-324.781c-8.621.001-15.61 6.989-15.61 15.61z" fill="#01c0fa"/><path d="m340.391 202.053h-24.175c8.621 0 15.61 6.989 15.61 15.61v175.927c0 8.621-6.989 15.61-15.61 15.61h24.175c8.621 0 15.61-6.989 15.61-15.61v-175.928c-.001-8.621-6.989-15.609-15.61-15.609z" fill="#0290cf"/><g fill="#f5f8f9"><path d="m27.018 274.522v31.559c0 2.874 2.33 5.203 5.203 5.203h31.559c2.874 0 5.203-2.33 5.203-5.203v-31.559c0-2.874-2.33-5.203-5.203-5.203h-31.558c-2.874 0-5.204 2.33-5.204 5.203z"/><path d="m113.684 274.522v31.559c0 2.874 2.33 5.203 5.203 5.203h31.559c2.874 0 5.203-2.33 5.203-5.203v-31.559c0-2.874-2.33-5.203-5.203-5.203h-31.559c-2.873 0-5.203 2.33-5.203 5.203z"/><path d="m200.351 274.522v31.559c0 2.874 2.33 5.203 5.203 5.203h31.559c2.874 0 5.203-2.33 5.203-5.203v-31.559c0-2.874-2.33-5.203-5.203-5.203h-31.559c-2.874 0-5.203 2.33-5.203 5.203z"/><path d="m287.017 274.522v31.559c0 2.874 2.33 5.203 5.203 5.203h31.559c2.874 0 5.203-2.33 5.203-5.203v-31.559c0-2.874-2.33-5.203-5.203-5.203h-31.559c-2.874 0-5.203 2.33-5.203 5.203z"/><path d="m27.018 347.051v31.559c0 2.874 2.33 5.203 5.203 5.203h31.559c2.874 0 5.203-2.33 5.203-5.203v-31.559c0-2.874-2.33-5.203-5.203-5.203h-31.558c-2.874 0-5.204 2.329-5.204 5.203z"/><path d="m237.113 341.848h-118.225c-2.874 0-5.203 2.33-5.203 5.203v31.559c0 2.874 2.33 5.203 5.203 5.203h118.225c2.874 0 5.203-2.33 5.203-5.203v-31.559c0-2.874-2.33-5.203-5.203-5.203z"/><path d="m287.017 347.051v31.559c0 2.874 2.33 5.203 5.203 5.203h31.559c2.874 0 5.203-2.33 5.203-5.203v-31.559c0-2.874-2.33-5.203-5.203-5.203h-31.559c-2.874 0-5.203 2.329-5.203 5.203z"/></g><path d="m328.982 243.982h-20.982c-4.267 0-7.726-3.459-7.726-7.726s3.459-7.726 7.726-7.726h20.982c4.267 0 7.726 3.459 7.726 7.726s-3.459 7.726-7.726 7.726z" fill="#465a61"/><path d="m242.316 243.982h-20.982c-4.267 0-7.726-3.459-7.726-7.726s3.459-7.726 7.726-7.726h20.982c4.267 0 7.726 3.459 7.726 7.726s-3.459 7.726-7.726 7.726z" fill="#465a61"/><path d="m158.473 177.234v27.819h39.055v-27.819c0-5.747-4.659-10.406-10.407-10.406h-18.242c-5.747-.001-10.406 4.658-10.406 10.406z" fill="#fe9738"/><path d="m453.935 233.681c-7.714 0-13.99 6.276-13.99 13.99v13.977c0 7.714 6.276 13.99 13.99 13.99s13.99-6.276 13.99-13.99v-13.978c0-7.714-6.276-13.989-13.99-13.989z" fill="#fedf30"/></g></svg>