<svg id="Capa_1" enable-background="new 0 0 512 512" height="512" viewBox="0 0 512 512" width="512" xmlns="http://www.w3.org/2000/svg"><g><path d="m382.914 17.233h-228.688c-18.331 0-33.245 14.914-33.245 33.245v411.044c0 18.332 14.914 33.246 33.245 33.246h228.688c18.331 0 33.245-14.914 33.245-33.246v-411.044c0-18.331-14.914-33.245-33.245-33.245z" fill="#7a8c98"/><path d="m382.914 17.233h-26.639c18.331 0 33.245 14.914 33.245 33.245v411.044c0 18.332-14.914 33.246-33.245 33.246h26.639c18.331 0 33.245-14.914 33.245-33.246v-411.044c0-18.331-14.914-33.245-33.245-33.245z" fill="#596c76"/><path d="m400.936 416.513v-366.035c0-9.938-8.084-18.022-18.022-18.022h-228.688c-9.938 0-18.022 8.084-18.022 18.022v366.035z" fill="#e8edf2"/><path d="m393.48 35.91c-4.583-3.324-9.075-3.326-9.249-3.387 3.34 5.183 5.288 11.344 5.288 17.955v366.035h11.417v-366.035c0-5.626-2.655-11.073-7.456-14.568z" fill="#c5d3dd"/><circle cx="268.57" cy="451.834" fill="#c5d3dd" r="13.817"/><g><circle cx="268.57" cy="173.451" fill="#01c0fa" r="57.395"/><circle cx="268.57" cy="173.451" fill="#b3dafe" r="42.172"/><g fill="#596c76"><path d="m247.152 165.249c0 11.811 9.609 21.419 21.418 21.419 11.811 0 21.419-9.609 21.419-21.419s-9.609-21.418-21.419-21.418-21.418 9.608-21.418 21.418z"/><path d="m268.57 215.623c10.096 0 19.371-3.57 26.639-9.508-6.863-7.238-16.364-11.403-26.639-11.403-10.276 0-19.777 4.165-26.64 11.403 7.268 5.939 16.544 9.508 26.64 9.508z"/></g></g><path d="m280.953 65.973h-24.767c-4.204 0-7.611-3.407-7.611-7.611s3.407-7.611 7.611-7.611h24.767c4.204 0 7.611 3.407 7.611 7.611s-3.406 7.611-7.611 7.611z" fill="#7a8c98"/><path d="m308.428 257.916h-79.717c-3.896 0-7.066 3.17-7.066 7.066v24.312c0 3.896 3.17 7.066 7.066 7.066h79.717c3.896 0 7.066-3.17 7.066-7.066v-24.312c.001-3.896-3.17-7.066-7.066-7.066z" fill="#fe9738"/><path d="m308.428 372.024h-134.909c-4.204 0-7.611-3.407-7.611-7.611s3.407-7.612 7.611-7.612h131.827v-18.148h-74.202c-1.182 2.668-3.854 4.529-6.961 4.529-4.204 0-7.611-3.407-7.611-7.612 0-6.695 5.446-12.141 12.141-12.141h79.717c6.695 0 12.141 5.446 12.141 12.141v24.312c-.002 6.696-5.448 12.142-12.143 12.142z" fill="#01c0fa"/><g><path d="m504.388 189.205h-158.334c-4.204 0-7.612-3.407-7.612-7.611s3.407-7.611 7.612-7.611h158.335c4.204 0 7.612 3.407 7.612 7.611s-3.408 7.611-7.613 7.611z" fill="#fe9738"/><g fill="#b3dafe"><path d="m504.388 162.546h-49.409c-4.204 0-7.612-3.407-7.612-7.611s3.407-7.611 7.612-7.611h49.409c4.204 0 7.612 3.407 7.612 7.611s-3.407 7.611-7.612 7.611z"/><path d="m504.388 135.887h-49.409c-4.204 0-7.612-3.407-7.612-7.612 0-4.204 3.407-7.611 7.612-7.611h49.409c4.204 0 7.612 3.407 7.612 7.611 0 4.205-3.407 7.612-7.612 7.612z"/></g></g><g><path d="m504.388 354.413h-158.334c-4.204 0-7.612-3.407-7.612-7.611s3.407-7.612 7.612-7.612h158.335c4.204 0 7.612 3.407 7.612 7.612s-3.408 7.611-7.613 7.611z" fill="#fe9738"/><g fill="#b3dafe"><path d="m504.388 327.754h-49.409c-4.204 0-7.612-3.407-7.612-7.611s3.407-7.612 7.612-7.612h49.409c4.204 0 7.612 3.407 7.612 7.612s-3.407 7.611-7.612 7.611z"/><path d="m504.388 301.096h-49.409c-4.204 0-7.612-3.407-7.612-7.611s3.407-7.612 7.612-7.612h49.409c4.204 0 7.612 3.407 7.612 7.612s-3.407 7.611-7.612 7.611z"/></g></g><g><path d="m20.113 73.216c-17.344 10.013-23.287 32.191-13.273 49.535l7.615 13.189 62.809-36.263-7.615-13.189c-10.014-17.343-32.192-23.286-49.536-13.272z" fill="#fe7ab6"/><path d="m89.095 120.17 83.282 144.249 5.242 64.99c.623 7.728-8.008 12.711-14.389 8.308l-53.662-37.035-83.282-144.249z" fill="#ffcebf"/><path d="m172.377 264.419c-19.141-8.977-29.609-2.934-31.404 18.131-19.141-8.977-29.609-2.934-31.405 18.131l-83.282-144.248 62.809-36.263z" fill="#fe7701"/><path d="m175.794 306.788 1.825 22.621c.623 7.728-8.008 12.711-14.389 8.308l-18.678-12.891z" fill="#596c76"/><path d="m89.095 120.17 83.282 144.249c-19.141-8.977-29.609-2.934-31.404 18.131l-83.283-144.248z" fill="#fe9738"/><path d="m8.679 126.523 63.316-36.556c8.3-4.792 18.912-1.948 23.704 6.352s1.948 18.913-6.352 23.704l-63.316 36.556c-8.3 4.792-18.912 1.948-23.704-6.352s-1.947-18.912 6.352-23.704z" fill="#b3dafe"/></g></g></svg>