<svg id="Capa_1" enable-background="new 0 0 512 512" height="512" viewBox="0 0 512 512" width="512" xmlns="http://www.w3.org/2000/svg"><g><path d="m90.623 335.264c-2.701 0-5.193-1.452-6.525-3.802l-53.701-94.751c-4.073-7.186-4.021-15.736.137-22.873s11.572-11.397 19.832-11.397h80.515c8.259 0 15.673 4.261 19.832 11.397 4.158 7.137 4.209 15.688.137 22.873l-53.701 94.751c-1.333 2.35-3.826 3.802-6.526 3.802zm-40.258-117.824c-4.125 0-6.179 2.762-6.871 3.949s-2.082 4.336-.047 7.925l47.176 83.238 47.176-83.238c2.034-3.588.645-6.737-.047-7.925s-2.747-3.949-6.871-3.949z" fill="#fe9738"/><path d="m473.319 474.578c-4.142 0-7.5-3.357-7.5-7.5v-10.065c0-1.638-1.333-2.97-2.97-2.97h-93.188c-4.142 0-7.5-3.357-7.5-7.5s3.358-7.5 7.5-7.5h93.188c9.909 0 17.97 8.062 17.97 17.97v10.065c0 4.143-3.358 7.5-7.5 7.5z" fill="#596c76"/><path d="m488.151 10.302v399.278c0 5.687-4.605 10.302-10.302 10.302h-213.01l-78.86-78.86v-330.72c0-5.687 4.615-10.302 10.301-10.302h281.569c5.697 0 10.302 4.615 10.302 10.302z" fill="#e8edf2"/><path d="m477.849 0h-24.724c5.697 0 10.302 4.615 10.302 10.302v399.278c0 5.687-4.605 10.302-10.302 10.302h24.724c5.697 0 10.302-4.615 10.302-10.302v-399.278c0-5.687-4.605-10.302-10.302-10.302z" fill="#c5d3dd"/><path d="m264.839 419.881v-68.559c0-5.687-4.615-10.302-10.302-10.302h-68.559z" fill="#c5d3dd"/><path d="m23.845 340.956v157.852c0 7.286 5.906 13.192 13.192 13.192h107.17c7.286 0 13.192-5.906 13.192-13.192v-157.852c0-7.286-5.906-13.192-13.192-13.192h-107.17c-7.285 0-13.192 5.906-13.192 13.192z" fill="#01c0fa"/><path d="m144.207 327.764h-23.179c7.286 0 13.192 5.906 13.192 13.192v157.852c0 7.286-5.906 13.192-13.192 13.192h23.179c7.286 0 13.192-5.906 13.192-13.192v-157.852c.001-7.286-5.906-13.192-13.192-13.192z" fill="#0290cf"/><circle cx="90.623" cy="393.513" fill="#d8ecfe" r="27.053"/><path d="m108.087 463.339h-34.93c-4.142 0-7.5-3.357-7.5-7.5s3.358-7.5 7.5-7.5h34.93c4.142 0 7.5 3.357 7.5 7.5s-3.358 7.5-7.5 7.5z" fill="#d8ecfe"/><path d="m369.661 475.562h-169.703c-7.719 0-13.977 6.258-13.977 13.977s6.258 13.977 13.977 13.977h169.703z" fill="#fe9738"/><path d="m217.746 475.562h-17.788c-7.719 0-13.977 6.258-13.977 13.977s6.258 13.977 13.977 13.977h17.788z" fill="#01c0fa"/><path d="m373.151 467.078h104.534c5.782 0 10.47 4.688 10.47 10.47v23.982c0 5.782-4.688 10.47-10.47 10.47h-104.534c-1.927 0-3.49-1.563-3.49-3.49v-37.942c0-1.927 1.562-3.49 3.49-3.49z" fill="#01c0fa"/><path d="m477.685 467.078h-23.869c5.782 0 10.47 4.688 10.47 10.47v23.982c0 5.782-4.688 10.47-10.47 10.47h23.869c5.782 0 10.47-4.688 10.47-10.47v-23.982c0-5.782-4.688-10.47-10.47-10.47z" fill="#0290cf"/><path d="m23.845 53.099v104.317c0 5.69 4.612 10.302 10.302 10.302h180.52c5.69 0 10.302-4.612 10.302-10.302v-104.317c0-2.602-.965-4.979-2.557-6.793-1.888-2.151-4.658-.509-7.745-.509h-180.52c-3.072 0-5.83-1.655-7.717.477-1.608 1.818-2.585 4.208-2.585 6.825z" fill="#01c0fa"/><path d="m214.667 42.798h-24.283c5.689.001 10.301 4.613 10.301 10.302v104.317c0 5.689-4.611 10.3-10.299 10.302h24.282c5.689 0 10.302-4.612 10.302-10.302v-104.318c-.001-5.689-4.613-10.301-10.303-10.301z" fill="#0290cf"/><path d="m224.969 57.476h-177.944c-3.024 0-5.735 1.31-7.619 3.385l28.244 35.644c2.931 3.699 7.392 5.856 12.111 5.856h115.047c4.719 0 9.18-2.157 12.111-5.856l18.049-22.778v-16.251z" fill="#0290cf"/><path d="m26.528 46.183 28.244 35.644c2.931 3.699 7.392 5.856 12.111 5.856h115.047c4.719 0 9.18-2.157 12.111-5.856l28.244-35.644c-1.885-2.075-4.595-3.386-7.619-3.386h-180.52c-3.023.001-5.733 1.311-7.618 3.386z" fill="#62dbfb"/><path d="m442.943 380.189h-64.645c-4.142 0-7.5-3.357-7.5-7.5s3.358-7.5 7.5-7.5h64.645c4.142 0 7.5 3.357 7.5 7.5s-3.358 7.5-7.5 7.5z" fill="#01c0fa"/><path d="m406.559 310.522-20.72 13.007c-4.77 2.995-4.77 9.946 0 12.941l20.72 13.007c2.483 1.559 5.64 1.559 8.124 0l20.72-13.007c4.77-2.995 4.77-9.946 0-12.941l-20.72-13.007c-2.484-1.559-5.641-1.559-8.124 0z" fill="#fe9738"/><path d="m394.195 79.919h-114.26c-2.761 0-5-2.239-5-5v-27.597c0-2.761 2.239-5 5-5h114.26c2.761 0 5 2.239 5 5v27.597c0 2.761-2.238 5-5 5z" fill="#01c0fa"/><g fill="#596c76"><path d="m405.15 151.759h-136.17c-4.142 0-7.5-3.357-7.5-7.5s3.358-7.5 7.5-7.5h136.17c4.142 0 7.5 3.357 7.5 7.5s-3.358 7.5-7.5 7.5z"/><path d="m405.15 192.663h-136.17c-4.142 0-7.5-3.357-7.5-7.5s3.358-7.5 7.5-7.5h136.17c4.142 0 7.5 3.357 7.5 7.5s-3.358 7.5-7.5 7.5z"/><path d="m405.15 233.568h-136.17c-4.142 0-7.5-3.357-7.5-7.5s3.358-7.5 7.5-7.5h136.17c4.142 0 7.5 3.357 7.5 7.5s-3.358 7.5-7.5 7.5z"/></g></g></svg>