<svg id="Capa_1" enable-background="new 0 0 512 512" height="512" viewBox="0 0 512 512" width="512" xmlns="http://www.w3.org/2000/svg"><g><path d="m373.386 394.459h-48.746v-276.918h48.746c4.204 0 7.611-3.407 7.611-7.611s-3.407-7.611-7.611-7.611h-48.746v-38.887c0-4.204-3.407-7.611-7.612-7.611s-7.611 3.407-7.611 7.611v38.886h-237.836v-38.886c0-4.204-3.408-7.611-7.611-7.611s-7.611 3.407-7.611 7.611v38.886h-48.748c-4.204 0-7.611 3.407-7.611 7.611s3.408 7.611 7.611 7.611h48.747v276.918h-48.747c-4.204 0-7.611 3.407-7.611 7.612s3.408 7.612 7.611 7.612h48.747v38.886c0 4.204 3.408 7.611 7.611 7.611s7.611-3.407 7.611-7.611v-38.886h237.835v38.886c0 4.204 3.407 7.611 7.611 7.611s7.612-3.407 7.612-7.611v-38.886h48.746c4.204 0 7.611-3.407 7.611-7.612s-3.405-7.611-7.609-7.611zm-301.805 0v-276.918h237.835v276.918z" fill="#b3dafe"/><path d="m309.205 169.702-103.212-59.643c-9.521-5.501-21.353-5.505-30.878-.012l-103.257 59.565c-9.525 5.494-15.468 15.738-15.472 26.734v119.205c-.004 10.995 5.885 21.244 15.406 26.747l103.211 59.642c4.765 2.752 10.107 4.129 15.45 4.129 5.334 0 10.669-1.373 15.428-4.117l103.258-59.564c9.525-5.495 15.468-15.739 15.472-26.734v-119.204c.004-10.996-5.885-21.245-15.406-26.748zm-48.575 54.872v62.905c-.002 5.576-3.016 10.77-7.845 13.555l-54.488 31.431c-4.83 2.787-10.829 2.783-15.655-.006l-54.464-31.473c-4.828-2.79-7.813-7.986-7.81-13.561v-62.905c.002-5.575 3.016-10.769 7.845-13.554l54.488-31.431c2.413-1.392 5.118-2.088 7.823-2.088 2.708 0 5.417.699 7.832 2.094l54.465 31.473c4.826 2.789 7.811 7.985 7.809 13.56z" fill="#01c0fa"/><path d="m309.205 169.702-103.212-59.643c-8.379-4.841-18.545-5.421-27.356-1.747 1.208.504 2.392 1.083 3.54 1.747l103.212 59.643c9.521 5.502 15.41 15.752 15.405 26.748v119.204c-.004 10.995-5.946 21.24-15.472 26.734l-103.258 59.564c-1.143.659-2.32 1.234-3.521 1.735 3.802 1.585 7.855 2.382 11.909 2.382 5.334 0 10.669-1.373 15.428-4.117l103.258-59.564c9.525-5.495 15.468-15.739 15.472-26.734v-119.204c.005-10.996-5.884-21.245-15.405-26.748z" fill="#0290cf"/><g><path d="m499.984 124.882c16.022 16.022 16.022 41.998 0 58.02l-12.184 12.184-58.02-58.02 12.184-12.184c16.022-16.021 41.998-16.021 58.02 0z" fill="#fe7ab6"/><path d="m499.984 124.882c-1.571-1.571-3.24-2.982-4.983-4.245 7.822 12.244 3.51 31.89-10.941 46.34l-12.184 12.184 15.924 15.924 12.184-12.184c16.021-16.021 16.021-41.997 0-58.019z" fill="#fe3d97"/><path d="m410.851 155.996-133.25 133.25-24.759 69.487c-2.944 8.262 5.03 16.236 13.292 13.292l69.487-24.759 133.25-133.25z" fill="#ffdfcf"/><path d="m451.526 196.989-133.25 133.25-62.924 31.322c-1.209.602-2.362.936-3.443 1.081.24 6.629 6.97 11.854 13.907 9.383l69.487-24.759 133.25-133.25z" fill="#ffcebf"/><path d="m277.601 289.245c23.546-4.206 33.216 5.464 29.01 29.01 23.546-4.206 33.216 5.464 29.01 29.01l133.25-133.25-58.02-58.02z" fill="#fe9738"/><path d="m335.683 346.884 132.869-132.869-17.026-17.026-123.041 123.041c7.18 4.17 9.577 13.124 7.198 26.854z" fill="#fe7701"/><path d="m261.46 334.546-8.618 24.186c-2.944 8.262 5.03 16.236 13.292 13.292l24.186-8.618z" fill="#596c76"/><path d="m252.224 362.586c.165 5.378 4.603 9.841 9.971 10.051 1.178.009 2.395-.176 3.62-.613l24.421-8.702-12.77-12.77-22.115 11.008c-1.093.545-2.137.862-3.127 1.026z" fill="#465a61"/><path d="m410.851 155.996-133.25 133.25c23.546-4.206 33.216 5.464 29.01 29.01l133.25-133.25z" fill="#fdb97e"/><path d="m496.869 186.486-58.488-58.488c-7.667-7.667-20.097-7.667-27.764 0s-7.667 20.097 0 27.764l58.488 58.488c7.667 7.667 20.097 7.667 27.764 0s7.667-20.098 0-27.764z" fill="#d8ecfe"/><path d="m496.869 186.486-16.552-16.552c5.913 5.914 4.492 16.922-3.175 24.589s-18.676 9.088-24.589 3.175l16.552 16.552c7.667 7.667 20.097 7.667 27.764 0s7.667-20.098 0-27.764z" fill="#b3dafe"/></g></g></svg>