<svg id="Capa_1" enable-background="new 0 0 512 512" height="512" viewBox="0 0 512 512" width="512" xmlns="http://www.w3.org/2000/svg"><g><path d="m60.266 15.453v481.095c0 8.534 6.918 15.453 15.453 15.453h360.563c8.534 0 15.453-6.918 15.453-15.453v-481.095c-.001-8.535-6.919-15.453-15.453-15.453h-360.564c-8.534 0-15.452 6.918-15.452 15.453z" fill="#e8edf2"/><path d="m436.282 0h-27.3c8.534 0 15.453 6.918 15.453 15.453v481.095c0 8.534-6.918 15.453-15.453 15.453h27.3c8.534 0 15.453-6.918 15.453-15.453v-481.095c-.001-8.535-6.919-15.453-15.453-15.453z" fill="#c5d3dd"/><path d="m400.568 39.753h-289.137c-2.845 0-5.151 2.306-5.151 5.151v132.509c0 2.845 2.306 5.151 5.151 5.151h289.137c2.845 0 5.151-2.306 5.151-5.151v-132.509c0-2.845-2.306-5.151-5.151-5.151z" fill="#0ed2b3"/><path d="m405.719 177.412v-5.761c-.563-.503-1.209-.932-1.932-1.263l-129.243-59.231 129.243-59.231c.722-.331 1.369-.76 1.932-1.263v-5.761c0-2.845-2.306-5.151-5.151-5.151h-7.307l-137.261 62.908-137.263-62.906h-7.306c-2.845 0-5.151 2.306-5.151 5.151v5.76c.563.503 1.21.932 1.932 1.263l129.242 59.231-129.242 59.231c-.722.331-1.369.76-1.932 1.263v5.76c0 2.845 2.306 5.151 5.151 5.151h7.305l137.264-62.906 137.263 62.906h7.306c2.844 0 5.15-2.306 5.15-5.151z" fill="#596c76"/><path d="m223.408 221.441h-111.977c-2.845 0-5.151 2.306-5.151 5.151v84.966c0 2.845 2.306 5.151 5.151 5.151h111.977c2.845 0 5.151-2.306 5.151-5.151v-84.966c0-2.845-2.306-5.151-5.151-5.151z" fill="#fedf30"/><g fill="#596c76"><path d="m401.431 234.318h-110.237c-4.268 0-7.726-3.459-7.726-7.726s3.459-7.726 7.726-7.726h110.236c4.268 0 7.726 3.459 7.726 7.726s-3.458 7.726-7.725 7.726z"/><path d="m401.431 276.801h-110.237c-4.268 0-7.726-3.459-7.726-7.726s3.459-7.726 7.726-7.726h110.236c4.268 0 7.726 3.459 7.726 7.726.001 4.267-3.458 7.726-7.725 7.726z"/><path d="m401.431 319.284h-110.237c-4.268 0-7.726-3.459-7.726-7.726s3.459-7.726 7.726-7.726h110.236c4.268 0 7.726 3.459 7.726 7.726.001 4.267-3.458 7.726-7.725 7.726z"/></g><path d="m401.431 372.704h-111.977c-2.845 0-5.151 2.306-5.151 5.151v84.966c0 2.845 2.306 5.151 5.151 5.151h111.977c2.845 0 5.151-2.306 5.151-5.151v-84.966c-.001-2.845-2.306-5.151-5.151-5.151z" fill="#01c0fa"/><g fill="#596c76"><path d="m221.668 385.581h-110.237c-4.267 0-7.726-3.459-7.726-7.726s3.459-7.726 7.726-7.726h110.237c4.267 0 7.726 3.459 7.726 7.726s-3.459 7.726-7.726 7.726z"/><path d="m221.668 428.064h-110.237c-4.267 0-7.726-3.459-7.726-7.726s3.459-7.726 7.726-7.726h110.237c4.267 0 7.726 3.459 7.726 7.726s-3.459 7.726-7.726 7.726z"/><path d="m221.668 470.547h-110.237c-4.267 0-7.726-3.459-7.726-7.726s3.459-7.726 7.726-7.726h110.237c4.267 0 7.726 3.459 7.726 7.726s-3.459 7.726-7.726 7.726z"/></g></g></svg>