<svg id="Capa_1" enable-background="new 0 0 512 512" height="512" viewBox="0 0 512 512" width="512" xmlns="http://www.w3.org/2000/svg"><g><path d="m34.763 30.905v347.138c0 17.069 13.837 30.905 30.905 30.905h380.663c17.069 0 30.905-13.837 30.905-30.905v-347.138c.001-17.068-13.836-30.905-30.905-30.905h-380.662c-17.069 0-30.906 13.837-30.906 30.905z" fill="#e8edf2"/><path d="m446.331 0h-27.843c17.069 0 30.905 13.837 30.905 30.905v347.138c0 17.069-13.837 30.905-30.905 30.905h27.843c17.069 0 30.905-13.837 30.905-30.905v-347.138c.001-17.068-13.836-30.905-30.905-30.905z" fill="#c5d3dd"/><path d="m446.331 0h-380.662c-17.069 0-30.906 13.837-30.906 30.905v41.722h442.473v-41.722c.001-17.068-13.836-30.905-30.905-30.905z" fill="#01c0fa"/><path d="m446.331 0h-27.843c17.069 0 30.905 13.837 30.905 30.905v41.722h27.843v-41.722c.001-17.068-13.836-30.905-30.905-30.905z" fill="#0290cf"/><circle cx="91.023" cy="36.314" fill="#d8ecfe" r="12.992"/><circle cx="145.508" cy="36.314" fill="#fedf30" r="12.992"/><circle cx="199.992" cy="36.314" fill="#fe9738" r="12.992"/><path d="m323.08 512h-134.16c-7.857 0-14.227-6.37-14.227-14.227v-119.737c0-7.857 6.37-14.227 14.227-14.227h38.966l20.027-27.739c3.981-5.514 12.191-5.514 16.172 0l20.028 27.739h38.966c7.857 0 14.227 6.37 14.227 14.227v119.737c.001 7.857-6.369 14.227-14.226 14.227z" fill="#fe9738"/><g fill="#f5f8f9"><g><path d="m232.535 468.371c-1.611.001-3.235-.501-4.624-1.541l-33.905-25.379c-1.949-1.459-3.096-3.751-3.096-6.185s1.147-4.726 3.096-6.185l33.905-25.38c3.417-2.556 8.259-1.861 10.815 1.555 2.557 3.415 1.861 8.258-1.555 10.815l-25.642 19.195 25.642 19.194c3.416 2.556 4.112 7.399 1.555 10.815-1.517 2.027-3.839 3.096-6.191 3.096z"/><path d="m279.465 468.371c-2.352.001-4.674-1.068-6.191-3.097-2.557-3.415-1.861-8.258 1.555-10.815l25.641-19.194-25.641-19.195c-3.417-2.557-4.113-7.399-1.555-10.815 2.556-3.417 7.399-4.114 10.815-1.555l33.904 25.38c1.95 1.459 3.097 3.751 3.097 6.185s-1.148 4.726-3.097 6.185l-33.904 25.379c-1.389 1.04-3.014 1.542-4.624 1.542z"/></g><path d="m250.079 486.259c-.35 0-.703-.024-1.059-.072-4.227-.579-7.185-4.477-6.606-8.704l11.86-86.532c.579-4.228 4.478-7.179 8.704-6.606 4.227.579 7.185 4.477 6.606 8.704l-11.86 86.532c-.53 3.871-3.843 6.678-7.645 6.678z"/></g><path d="m409.732 249.292h-307.464c-5.523 0-10-4.477-10-10v-121.311c0-5.523 4.477-10 10-10h307.465c5.523 0 10 4.477 10 10v121.311c-.001 5.522-4.478 10-10.001 10z" fill="#c5d3dd"/><g><path d="m210.772 133.408h90.455v90.455h-90.455z" fill="#01c0fa"/><path d="m262.214 177.232-15.552 27.538-6.129-10.615c-2.802-4.853-9.807-4.853-12.609 0l-17.152 29.709h90.455l-26.336-46.632c-2.785-4.933-9.89-4.933-12.677 0z" fill="#596c76"/></g><circle cx="208.513" cy="285.188" fill="#c5d3dd" r="11.332"/><circle cx="303.487" cy="285.188" fill="#c5d3dd" r="11.332"/><circle cx="256" cy="285.188" fill="#9facba" r="11.332"/></g></svg>